<svg width="50" height="50" viewBox="0 0 50 50" fill="none" xmlns="http://www.w3.org/2000/svg">
<rect width="50" height="50" rx="10" fill="#2563EB"/>
<path d="M32.7617 30.3242C32.1888 31.3789 31.4922 32.3815 30.6719 33.332C29.8646 34.2826 28.9596 35.1224 27.957 35.8516C26.9674 36.5807 25.8932 37.1602 24.7344 37.5898C23.5885 38.0195 22.3841 38.2344 21.1211 38.2344C20.1445 38.2344 19.194 38.0716 18.2695 37.7461C17.3451 37.4206 16.5182 36.9583 15.7891 36.3594C15.0729 35.7604 14.4935 35.0443 14.0508 34.2109C13.6211 33.3646 13.4062 32.4271 13.4062 31.3984C13.4062 30.3958 13.6081 29.4648 14.0117 28.6055C14.4154 27.7331 14.9362 26.9388 15.5742 26.2227C16.2253 25.5065 16.9544 24.8685 17.7617 24.3086C18.582 23.7487 19.4089 23.2734 20.2422 22.8828C19.6562 22.7786 19.1289 22.5638 18.6602 22.2383C18.1914 21.9128 17.7943 21.5221 17.4688 21.0664C17.1432 20.6107 16.8958 20.1029 16.7266 19.543C16.5573 18.9831 16.4727 18.4167 16.4727 17.8438C16.4727 17.0495 16.6159 16.3008 16.9023 15.5977C17.1888 14.8815 17.5729 14.224 18.0547 13.625C18.5495 13.013 19.1224 12.4661 19.7734 11.9844C20.4245 11.4896 21.1081 11.0729 21.8242 10.7344C22.5534 10.3958 23.2956 10.1354 24.0508 9.95312C24.819 9.77083 25.5612 9.67969 26.2773 9.67969C27.3451 9.67969 28.3216 9.89453 29.207 10.3242C30.0924 10.7409 30.8737 11.3529 31.5508 12.1602L28.7188 14.2305C28.4453 13.8529 28.1458 13.5013 27.8203 13.1758C27.5078 12.8372 27.1628 12.5508 26.7852 12.3164C26.4206 12.069 26.0234 11.8737 25.5938 11.7305C25.1771 11.5872 24.7279 11.5156 24.2461 11.5156C23.6471 11.5156 23.0547 11.6263 22.4688 11.8477C21.8958 12.056 21.3815 12.3555 20.9258 12.7461C20.4701 13.1237 20.099 13.5794 19.8125 14.1133C19.5391 14.6471 19.4023 15.2331 19.4023 15.8711C19.4023 16.5352 19.5456 17.1536 19.832 17.7266C20.1185 18.2865 20.4961 18.7747 20.9648 19.1914C21.4336 19.6081 21.9674 19.9336 22.5664 20.168C23.1784 20.4023 23.8034 20.5195 24.4414 20.5195C25.1706 20.5195 25.8477 20.4023 26.4727 20.168L26.7656 20.9688C25.7109 21.3073 24.6562 21.7435 23.6016 22.2773C22.5599 22.7982 21.6224 23.4297 20.7891 24.1719C19.9557 24.9141 19.2786 25.7734 18.7578 26.75C18.25 27.7266 17.9961 28.8333 17.9961 30.0703C17.9961 30.7865 18.1003 31.4505 18.3086 32.0625C18.5169 32.6745 18.8164 33.2083 19.207 33.6641C19.6107 34.1198 20.099 34.4779 20.6719 34.7383C21.2578 34.9987 21.9154 35.1289 22.6445 35.1289C23.3997 35.1289 24.2461 34.9792 25.1836 34.6797C26.1211 34.3672 27.0391 33.957 27.9375 33.4492C28.8359 32.9414 29.6562 32.362 30.3984 31.7109C31.1406 31.0599 31.7005 30.3958 32.0781 29.7188L32.7617 30.3242Z" fill="#FFFF00"/>
</svg>
